<?xml version="1.0" standalone="no"?>
<svg viewBox="0 0 200 200" xmlns="http://www.w3.org/2000/svg">
  <path fill="#ECEFF1" d="M15.6,-20.4C25.7,-21.2,43.2,-28.1,56.3,-25.8C69.4,-23.4,78.1,-11.7,78.8,0.4C79.6,12.5,72.3,25,62.5,33.2C52.7,41.3,40.4,45,29.6,42.8C18.7,40.7,9.4,32.8,3.4,26.9C-2.6,21,-5.1,17.1,-19.1,21.1C-33.2,25,-58.7,36.8,-72.3,34.6C-85.9,32.4,-87.6,16.2,-82.9,2.7C-78.1,-10.7,-66.9,-21.4,-54.2,-25.2C-41.5,-29,-27.3,-25.9,-18.1,-25.6C-8.8,-25.3,-4.4,-27.7,-0.8,-26.3C2.7,-24.9,5.5,-19.6,15.6,-20.4Z" transform="translate(100 100)" />
</svg>
