<?xml version="1.0" standalone="no"?>
<svg viewBox="0 0 200 300" xmlns="http://www.w3.org/2000/svg">
  <path fill="#E8DAFF" d="M34.7,-60.9C44.6,-54.4,52.1,-44.4,61.7,-33.7C71.3,-22.9,82.9,-11.5,86.1,1.8C89.2,15.1,83.8,30.2,74.7,41.6C65.5,53.1,52.5,60.8,39.5,63.8C26.4,66.7,13.2,65,0.4,64.2C-12.3,63.4,-24.6,63.7,-37.1,60.4C-49.5,57,-62.1,50.1,-69.6,39.4C-77,28.7,-79.3,14.4,-78.2,0.7C-77,-13,-72.4,-26.1,-65.1,-37C-57.8,-48,-47.9,-56.9,-36.6,-62.6C-25.3,-68.2,-12.7,-70.8,-0.1,-70.5C12.4,-70.3,24.8,-67.3,34.7,-60.9Z" transform="translate(100 100)" />
</svg>
