<?xml version="1.0" ?><!DOCTYPE svg  PUBLIC '-//W3C//DTD SVG 1.1//EN'  'http://www.w3.org/Graphics/SVG/1.1/DTD/svg11.dtd'><svg enable-background="new 0 0 91 91" height="91px" id="Layer_1" version="1.1" viewBox="0 0 91 91" width="91px" xml:space="preserve" xmlns="http://www.w3.org/2000/svg" xmlns:xlink="http://www.w3.org/1999/xlink"><g><g><path d="M11.742,38.719V88.28h3.629c2.852,0,5.172-2.33,5.172-5.173V38.72L11.742,38.719L11.742,38.719z" fill="#F4F2E8"/><g><path d="M27.762,14.339c0,6.419-5.2,11.621-11.62,11.621c-6.417,0-11.618-5.202-11.618-11.621     c0-6.418,5.201-11.62,11.618-11.62C22.562,2.719,27.762,7.921,27.762,14.339z" fill="#9AE0FF"/><path d="M29.968,14.339c0-7.623-6.203-13.823-13.826-13.823S2.32,6.716,2.32,14.339     c0,6.871,5.041,12.572,11.617,13.633v8.542h-4.4v53.97h5.834c4.066,0,7.375-3.31,7.375-7.378V36.515h-4.399v-8.542     C24.922,26.911,29.967,21.209,29.968,14.339z M18.337,42.66h-4.392v-1.736h4.392V42.66z M15.371,86.076h-1.426V47.069h4.392     v36.037C18.337,84.744,17.007,86.076,15.371,86.076z M6.728,14.339c0-5.191,4.225-9.415,9.414-9.415     c5.192,0,9.416,4.224,9.417,9.415c0,5.192-4.225,9.417-9.417,9.417C10.951,23.756,6.728,19.531,6.728,14.339z" fill="#3B6A75"/></g><path d="M42.811,38.719V88.28h3.631c2.851,0,5.171-2.33,5.171-5.173V38.72L42.811,38.719L42.811,38.719z" fill="#F4F2E8"/><path d="M61.034,14.339c0-7.623-6.201-13.823-13.822-13.823c-7.625,0-13.827,6.2-13.827,13.823    c0,1.219,0.987,2.206,2.205,2.206c1.217,0,2.203-0.989,2.203-2.206c0-5.191,4.225-9.415,9.419-9.415    c5.19,0,9.413,4.224,9.413,9.415c0,5.192-4.223,9.417-9.413,9.417c-1.218,0-2.205,0.987-2.205,2.204v10.555h-4.399v53.97h5.834    c4.067,0,7.373-3.31,7.373-7.378V36.515h-4.399v-8.542C55.99,26.911,61.034,21.21,61.034,14.339z M49.407,42.66h-4.392v-1.736    h4.392V42.66z M46.441,86.076h-1.426V47.069h4.392v36.037C49.407,84.744,48.077,86.076,46.441,86.076z" fill="#3B6A75"/><path d="M74.184,38.719V88.28h3.629c2.851,0,5.173-2.33,5.173-5.173V38.72L74.184,38.719L74.184,38.719z" fill="#F4F2E8"/><path d="M88.177,12.123c0.429-0.52,0.597-1.21,0.453-1.869c-0.143-0.661-0.581-1.219-1.188-1.514l-16.386-8    l-1.935,3.962l13.872,6.773l-6.108,7.404c-0.324,0.396-0.504,0.893-0.504,1.403v16.231h-4.4v53.97h5.832    c4.067,0,7.377-3.31,7.377-7.378V36.515h-4.398V21.076L88.177,12.123z M80.781,40.924v1.736h-4.393v-1.736H80.781z M77.813,86.076    h-1.424V47.069h4.393v36.037C80.781,84.744,79.45,86.076,77.813,86.076z" fill="#3B6A75"/></g><path d="M9.721,18.489c-0.887,0-1.721-0.538-2.059-1.413c-0.893-2.322-0.424-5.262,1.223-7.67   c1.582-2.314,3.937-3.646,6.46-3.656c0.004,0,0.006,0,0.011,0c1.213,0,2.199,0.98,2.202,2.194c0.007,1.219-0.977,2.209-2.193,2.214   c-1.496,0.006-2.483,1.215-2.838,1.736c-0.805,1.174-1.11,2.651-0.748,3.598c0.438,1.136-0.129,2.412-1.267,2.85   C10.252,18.442,9.983,18.489,9.721,18.489z" fill="#FFFFFF"/></g></svg>