<?xml version="1.0" ?><!DOCTYPE svg  PUBLIC '-//W3C//DTD SVG 1.1//EN'  'http://www.w3.org/Graphics/SVG/1.1/DTD/svg11.dtd'><svg enable-background="new 0 0 91 91" height="91px" id="Layer_1" version="1.1" viewBox="0 0 91 91" width="91px" xml:space="preserve" xmlns="http://www.w3.org/2000/svg" xmlns:xlink="http://www.w3.org/1999/xlink"><g><path d="M77.869,67.013c0,13.94-13.815,23.708-32.779,23.708s-33.558-9.768-33.558-23.708   c0-4.122-1.067-10.28,2.947-11.449c6.436-1.875,17.253-1.097,30.61-1.097c13.484,0,25.436,0,30.771,0.548   C79.917,55.433,77.869,62.982,77.869,67.013z" fill="#FF889C"/><g><g><path d="M27.688,53.337c-6.456-1.876-13.073-0.083-13.352-0.006c-0.933,0.26-1.479,1.225-1.221,2.159     c0.258,0.934,1.222,1.481,2.159,1.226c0.058-0.016,5.954-1.601,11.434-0.007c0.163,0.048,0.329,0.069,0.491,0.069     c0.761,0,1.463-0.497,1.684-1.266C29.155,54.582,28.62,53.607,27.688,53.337z" fill="#F16B72"/><path d="M76.435,53.337c-6.457-1.877-13.074-0.083-13.353-0.006c-0.934,0.26-1.479,1.225-1.22,2.159     c0.256,0.934,1.219,1.481,2.156,1.226c0.06-0.016,5.961-1.601,11.434-0.007c0.164,0.048,0.329,0.069,0.492,0.069     c0.76,0,1.461-0.497,1.684-1.266C77.9,54.582,77.366,53.607,76.435,53.337z" fill="#F16B72"/></g><path d="M69.821,34.087c-0.162-4.364-1.868-6.868-4.479-8.671c-2.624-1.771-6.338-2.605-10.019-2.596    c-3.414-0.01-6.773,0.711-9.042,1.734l-0.911,0.402l-0.906-0.402c-1.817-0.83-4.356-1.439-7.055-1.658l-4.648,0.063    c-2.742,0.312-5.364,1.107-7.357,2.46c-2.611,1.799-4.315,4.308-4.479,8.66c-0.007,0.351-0.012,0.671-0.012,0.966    c0.048,6.147,1.458,8.365,3.167,11.467c1.766,3.053,3.782,6.953,3.729,14.171c-0.004,8.382,1.418,13.301,2.963,15.903    c1.573,2.614,2.103,3.003,3.813,3.003c1.812,0,2.433-1.828,2.51-2.794c0.353-3.544-0.257-9.09,1.494-15.008    c0.504-1.64,1.121-3.683,2.344-5.534c1.656-2.494,6.123-4.444,8.884,0c1.171,1.891,1.841,3.895,2.34,5.534    c1.344,4.505,1.729,9.219,1.417,12.815c-0.438,5.003,2.493,4.986,2.589,4.986c1.562,0,2.241-0.389,3.805-3.003    c1.553-2.603,2.975-7.521,2.97-15.903c-0.047-7.234,1.973-11.118,3.737-14.173c1.707-3.101,3.104-5.316,3.161-11.464    C69.836,34.742,69.827,34.427,69.821,34.087z" fill="#F4F2E8"/><path d="M71.584,34.29l-0.007-0.267c-0.166-4.505-1.829-7.698-5.25-10.063c-2.766-1.867-6.649-2.896-10.995-2.896    c-0.002,0-0.075-0.001-0.077-0.001c-3.445,0-7.068,0.707-9.678,1.885l-0.201,0.088l-0.178-0.079    c-2.047-0.936-4.76-1.577-7.643-1.812c-0.057-0.004-0.112-0.007-0.166-0.005l-4.648,0.063c-0.059,0.001-0.116,0.005-0.175,0.011    c-3.211,0.364-6.028,1.316-8.156,2.759c-3.404,2.346-5.068,5.535-5.237,10.067c-0.008,0.365-0.012,0.698-0.012,1.017    c0.049,6.279,1.475,8.853,3.125,11.832l0.278,0.5c1.794,3.104,3.542,6.685,3.492,13.292c-0.005,9.411,1.742,14.33,3.215,16.809    c1.611,2.68,2.602,3.854,5.316,3.854c2.567,0,4.086-2.218,4.257-4.376c0.11-1.123,0.133-2.415,0.154-3.783    c0.049-3.104,0.112-6.968,1.271-10.883l0.027-0.093c0.488-1.585,1.039-3.382,2.101-4.986c0.615-0.928,1.926-1.867,3.237-1.867    c1.035,0,1.941,0.612,2.69,1.819c1.028,1.664,1.642,3.445,2.149,5.113c1.168,3.919,1.673,8.465,1.351,12.16    c-0.214,2.445,0.247,4.307,1.371,5.533c1.157,1.265,2.561,1.362,2.964,1.362h0.002c2.568,0,3.716-1.188,5.314-3.858    c1.471-2.464,3.222-7.38,3.216-16.813c-0.042-6.59,1.708-10.176,3.521-13.316l0.245-0.442c1.652-2.982,3.076-5.558,3.135-11.868    C71.594,34.804,71.588,34.554,71.584,34.29z M65.386,45.216l-0.23,0.42c-1.948,3.37-4.021,7.594-3.974,15.052    c0.007,9.076-1.7,13.295-2.719,15c-1.274,2.129-1.516,2.149-2.276,2.149c-0.055-0.007-0.248-0.043-0.425-0.252    c-0.187-0.222-0.603-0.939-0.437-2.827c0.363-4.175-0.176-9.085-1.488-13.479c-0.549-1.813-1.28-3.937-2.525-5.95    c-1.395-2.244-3.409-3.481-5.675-3.481c-2.682,0-5.027,1.726-6.165,3.439c-1.34,2.028-1.999,4.173-2.527,5.895l-0.033,0.11    c-1.302,4.394-1.368,8.521-1.422,11.84c-0.022,1.349-0.04,2.515-0.142,3.526c-0.001,0.012-0.133,1.179-0.76,1.179    c-0.918,0-1.014,0-2.304-2.145c-1.018-1.713-2.721-5.938-2.718-14.994c0.056-7.478-2.018-11.696-3.946-15.031l-0.263-0.478    c-1.536-2.769-2.646-4.771-2.688-10.143c0-0.283,0.005-0.59,0.012-0.901c0.126-3.393,1.239-5.569,3.709-7.271    c1.63-1.107,3.872-1.853,6.484-2.159l4.478-0.058c2.422,0.202,4.744,0.747,6.401,1.505l0.886,0.393l6.148,3.258    c0.261,0.141,0.543,0.205,0.818,0.205c0.631,0,1.239-0.34,1.555-0.933c0.454-0.856,0.127-1.919-0.729-2.373l-2.744-1.455    c1.736-0.43,3.696-0.678,5.564-0.678h0.141c3.539,0,6.808,0.837,8.953,2.283c2.483,1.718,3.596,3.897,3.72,7.264l0.006,0.244    c0.005,0.235,0.011,0.461,0.011,0.663C68.032,40.438,66.922,42.442,65.386,45.216z" fill="#3B6A75"/><path d="M57.365,45.654c-0.3-0.933-2.528-6.662-11.894-7.194c-8.147-0.458-11.518,5.685-12.169,9.051    c-6.638,26.595,0.89,36.098,1.213,36.49c0.348,0.419,0.849,0.636,1.354,0.636c0.394,0,0.79-0.131,1.117-0.4    c0.747-0.616,0.851-1.723,0.233-2.471c-0.06-0.074-5.329-6.765-2.116-25.769c0.068-0.126,0.138-0.25,0.175-0.395    c0.07-0.287,1.812-7.018,7.419-6.596c0.979,0.071,1.808-0.656,1.878-1.623c0.069-0.966-0.656-1.807-1.623-1.877    c-2.347-0.171-4.279,0.469-5.85,1.51c0.733-1.901,2.81-5.359,8.169-5.05c7.34,0.416,8.693,4.577,8.739,4.729    c0.018,0.063,0.041,0.127,0.063,0.187c0.006,0.014,0.077,0.202,0.19,0.569c-1.617-1.112-3.689-1.812-6.316-1.64    c-0.967,0.063-1.7,0.899-1.637,1.866c0.062,0.968,0.887,1.712,1.865,1.637c5.978-0.381,7.26,5.894,7.317,6.19    c0.048,0.249,0.156,0.465,0.292,0.66c0.519,5.817,0.528,14.438-1.366,26.093c-0.156,0.957,0.494,1.859,1.45,2.014    c0.96,0.157,1.859-0.494,2.016-1.451C61.863,58.359,57.788,46.761,57.365,45.654z" fill="#F16B72"/><path d="M45.197,14.289V6.7c0-2.577-2.085-4.665-4.662-4.665c-2.579,0-4.665,2.088-4.665,4.665v7.589H45.197z" fill="#9AE0FF"/><polygon fill="#68C1E0" points="65.978,8.868 45.197,6.852 45.197,10.494 65.978,15.903   "/><g><rect fill="#9AE0FF" height="7.034" width="13.864" x="65.976" y="8.868"/><path d="M79.84,7.113H66.057L46.779,5.243c-0.662-2.839-3.207-4.963-6.244-4.963     c-3.541,0-6.421,2.881-6.421,6.421v9.344h4.558L33.785,45.93c-0.444,1.286-3.21,9.697-3.089,19.429     c0.012,0.962,0.795,1.733,1.754,1.733c0.008,0,0.016,0,0.024,0.001c0.969-0.012,1.745-0.808,1.733-1.777     c-0.121-9.699,2.908-18.271,2.938-18.356c0.035-0.102,0.063-0.206,0.08-0.311l5.004-30.604h4.722v-3.279l18.583,4.838     c0.011,0.003,0.021,0.001,0.032,0.004c0.132,0.032,0.267,0.053,0.408,0.053H79.84c0.97,0,1.757-0.786,1.757-1.757V8.868     C81.597,7.898,80.81,7.113,79.84,7.113z M43.442,12.534h-2.773c0,0-0.001,0-0.001,0h-3.044V6.7c0-1.604,1.307-2.91,2.911-2.91     c1.602,0,2.907,1.306,2.907,2.91v0.151v3.643V12.534z M46.952,8.785l17.269,1.677v3.171L46.952,9.137V8.785z M78.085,14.148     H67.733v-3.524h10.352V14.148z" fill="#3B6A75"/></g></g><path d="M63.136,40.05c-0.136,0-0.274-0.019-0.413-0.055c-0.83-0.229-1.319-1.085-1.093-1.917   c1.486-5.427-2.113-6.896-2.529-7.047c-0.805-0.289-1.233-1.176-0.953-1.983c0.283-0.808,1.158-1.239,1.967-0.967   c2.369,0.8,6.369,4.091,4.525,10.821C64.45,39.595,63.822,40.05,63.136,40.05z" fill="#FFFFFF"/></g></svg>