<?xml version="1.0" ?><!DOCTYPE svg  PUBLIC '-//W3C//DTD SVG 1.1//EN'  'http://www.w3.org/Graphics/SVG/1.1/DTD/svg11.dtd'><svg enable-background="new 0 0 91 91" height="91px" id="Layer_1" version="1.1" viewBox="0 0 91 91" width="91px" xml:space="preserve" xmlns="http://www.w3.org/2000/svg" xmlns:xlink="http://www.w3.org/1999/xlink"><g><path d="M66.621,32.888c-0.142-3.763-1.614-5.934-3.871-7.489c-2.267-1.529-5.475-2.249-8.656-2.241   c-2.945-0.007-5.854,0.608-7.813,1.495l-0.781,0.353l-0.787-0.353c-1.575-0.716-3.772-1.24-6.094-1.426l-4.025,0.051   c-2.371,0.271-4.631,0.961-6.355,2.122c-2.257,1.557-3.73,3.73-3.863,7.489c0,0.298-0.015,0.575-0.015,0.834   c0.04,5.311,1.258,7.228,2.731,9.909c1.529,2.633,3.279,6,3.234,12.245c-0.012,7.242,1.215,11.494,2.553,13.744   c1.354,2.256,1.812,2.59,3.29,2.59c1.569,0,2.112-1.576,2.176-2.41c0.302-3.064-0.226-7.857,1.292-12.969   c0.434-1.416,0.957-3.188,2.023-4.789c1.428-2.156,5.294-3.838,7.673,0c1.011,1.631,1.597,3.373,2.021,4.789   c1.161,3.893,1.496,7.965,1.228,11.07c-0.378,4.322,2.158,4.307,2.24,4.307c1.346,0,1.932-0.332,3.285-2.59   c1.34-2.25,2.567-6.502,2.563-13.744c-0.039-6.248,1.706-9.609,3.23-12.244c1.477-2.685,2.688-4.6,2.737-9.909   C66.639,33.457,66.623,33.182,66.621,32.888z" fill="#F4F2E8"/><path d="M68.833,33.177l-0.01-0.372c-0.151-4.074-1.729-7.091-4.84-9.236c-2.503-1.688-6-2.618-9.933-2.618   c-3.042,0-6.229,0.611-8.554,1.637c-1.828-0.808-4.202-1.36-6.706-1.56c-0.067-0.007-0.136-0.01-0.203-0.008l-4.023,0.052   c-0.075,0.001-0.147,0.006-0.222,0.014c-2.877,0.329-5.414,1.187-7.356,2.497c-3.098,2.136-4.673,5.154-4.816,9.305   c0,0.135-0.004,0.266-0.008,0.391c-0.004,0.151-0.007,0.3-0.007,0.459c0.039,5.6,1.372,8.007,2.782,10.556l0.247,0.446   c1.506,2.593,2.975,5.589,2.936,11.132c-0.012,8.293,1.551,12.666,2.867,14.881c1.366,2.277,2.396,3.66,5.182,3.66   c2.65,0,4.206-2.236,4.369-4.396c0.098-0.996,0.115-2.123,0.134-3.314c0.042-2.643,0.094-5.932,1.074-9.227l0.034-0.113   c0.401-1.314,0.857-2.807,1.717-4.1c0.419-0.633,1.34-1.305,2.222-1.305c0.239,0,0.966,0,1.739,1.25   c0.86,1.387,1.385,2.93,1.783,4.256c0.986,3.303,1.414,7.133,1.145,10.246c-0.203,2.311,0.255,4.096,1.362,5.303   c1.19,1.301,2.652,1.402,3.073,1.402h0.002c2.533,0,3.688-1.18,5.182-3.668c1.31-2.205,2.874-6.576,2.871-14.887   c-0.037-5.525,1.367-8.416,2.957-11.166l0.218-0.394c1.409-2.549,2.74-4.957,2.792-10.579   C68.843,33.544,68.838,33.365,68.833,33.177z M54.821,72.211v-2.207c0,0,0,0,0.002,0L54.821,72.211z M62.188,42.166l-0.199,0.361   c-1.729,2.989-3.57,6.735-3.525,13.348c0.002,7.678-1.41,11.201-2.248,12.609c-0.737,1.23-1.021,1.475-1.041,1.498   c-0.007,0.002-0.055,0.014-0.199,0.02c-0.079-0.125-0.311-0.615-0.198-1.91c0.321-3.695-0.157-8.029-1.313-11.895   c-0.482-1.605-1.127-3.492-2.26-5.314c-1.332-2.15-3.28-3.336-5.487-3.336c-2.262,0-4.579,1.287-5.896,3.277   c-1.215,1.826-1.819,3.805-2.261,5.25l-0.039,0.129c-1.157,3.891-1.215,7.516-1.261,10.43c-0.017,1.146-0.033,2.137-0.118,3.002   c-0.009,0.117-0.056,0.268-0.104,0.367c-0.127-0.002-0.203-0.008-0.247-0.014c-0.137-0.129-0.424-0.504-1.021-1.496   c-0.843-1.418-2.255-4.941-2.245-12.602c0.047-6.643-1.797-10.383-3.505-13.322l-0.228-0.411c-1.324-2.394-2.199-3.975-2.231-8.436   l0.007-0.332c0.003-0.161,0.008-0.329,0.006-0.425c0.119-3.381,1.539-4.804,2.894-5.738c1.317-0.889,3.135-1.49,5.265-1.746   l3.806-0.049c1.999,0.169,3.911,0.614,5.271,1.233l0.722,0.322l5.317,2.822c0.33,0.175,0.684,0.259,1.033,0.259   c0.79,0,1.554-0.426,1.949-1.173c0.57-1.075,0.162-2.411-0.913-2.981l-0.657-0.349c0.936-0.132,1.909-0.204,2.871-0.204   c2.936,0,5.627,0.68,7.364,1.853c1.971,1.358,2.814,3.026,2.916,5.709l0.009,0.381c0.004,0.144,0.009,0.281,0.009,0.397   C64.389,38.186,63.513,39.769,62.188,42.166z" fill="#3B6A75"/><g><path d="M44.985,1.152c-1.218,0-2.205,0.987-2.205,2.206v7.003c0,1.218,0.987,2.206,2.205,2.206    s2.205-0.988,2.205-2.206V3.358C47.19,2.138,46.204,1.152,44.985,1.152z" fill="#3B6A75"/><path d="M44.985,78.434c-1.218,0-2.205,0.988-2.205,2.205v7.004c0,1.219,0.987,2.205,2.205,2.205    s2.205-0.988,2.205-2.205v-7.004C47.19,79.422,46.204,78.434,44.985,78.434z" fill="#3B6A75"/><path d="M87.643,43.807h-7.004c-1.218,0-2.205,0.987-2.205,2.205c0,1.219,0.987,2.207,2.205,2.207h7.004    c1.218,0,2.205-0.988,2.205-2.207C89.848,44.794,88.86,43.807,87.643,43.807z" fill="#3B6A75"/><path d="M12.563,46.012c0-1.217-0.986-2.205-2.205-2.205H3.356c-1.218,0-2.205,0.987-2.205,2.205    c0,1.219,0.987,2.207,2.205,2.207h7.002C11.576,48.219,12.563,47.23,12.563,46.012z" fill="#3B6A75"/><path d="M61.358,16.862c0.346,0.196,0.721,0.289,1.09,0.289c0.767,0,1.512-0.399,1.918-1.113l3.469-6.086    c0.604-1.059,0.236-2.405-0.823-3.008c-1.06-0.604-2.406-0.234-3.008,0.823l-3.47,6.086C59.932,14.912,60.3,16.258,61.358,16.862z    " fill="#3B6A75"/><path d="M28.756,74.094c-1.056-0.605-2.405-0.236-3.007,0.824l-3.47,6.086c-0.603,1.057-0.234,2.404,0.824,3.008    c0.345,0.197,0.72,0.289,1.09,0.289c0.767,0,1.512-0.4,1.917-1.113l3.47-6.086C30.183,76.043,29.814,74.697,28.756,74.094z" fill="#3B6A75"/><path d="M82.959,65.121l-6.088-3.465c-1.057-0.604-2.404-0.234-3.007,0.824c-0.604,1.061-0.234,2.406,0.824,3.01    l6.088,3.465c0.346,0.195,0.72,0.289,1.09,0.289c0.767,0,1.512-0.4,1.918-1.115C84.388,67.07,84.019,65.725,82.959,65.121z" fill="#3B6A75"/><path d="M7.541,27.237l6.084,3.465c0.345,0.195,0.72,0.29,1.09,0.29c0.767,0,1.512-0.401,1.918-1.115    c0.602-1.06,0.232-2.405-0.825-3.008l-6.084-3.465c-1.059-0.604-2.404-0.234-3.008,0.824C6.113,25.287,6.482,26.633,7.541,27.237z    " fill="#3B6A75"/><path d="M75.357,29.778c0.382,0,0.769-0.1,1.123-0.311l6.027-3.572c1.046-0.621,1.392-1.974,0.771-3.021    c-0.621-1.046-1.972-1.395-3.021-0.772l-6.027,3.572c-1.047,0.621-1.393,1.974-0.771,3.022    C73.871,29.39,74.604,29.778,75.357,29.778z" fill="#3B6A75"/><path d="M13.782,61.518l-6.026,3.57c-1.048,0.619-1.395,1.973-0.774,3.02c0.412,0.697,1.146,1.082,1.899,1.082    c0.382,0,0.769-0.1,1.122-0.309l6.025-3.568c1.049-0.619,1.395-1.973,0.774-3.021C16.181,61.244,14.829,60.896,13.782,61.518z" fill="#3B6A75"/><path d="M64.771,75.297c-0.621-1.047-1.972-1.393-3.021-0.773c-1.046,0.621-1.393,1.975-0.771,3.023l3.569,6.023    c0.412,0.693,1.145,1.08,1.898,1.08c0.382,0,0.769-0.098,1.123-0.309c1.047-0.621,1.393-1.973,0.771-3.021L64.771,75.297z" fill="#3B6A75"/><path d="M27.029,18.177c0.383,0,0.771-0.1,1.122-0.31c1.047-0.621,1.394-1.974,0.772-3.021l-3.57-6.021    c-0.62-1.047-1.974-1.395-3.021-0.772c-1.047,0.621-1.394,1.975-0.772,3.021l3.57,6.021    C25.543,17.792,26.276,18.177,27.029,18.177z" fill="#3B6A75"/></g><path d="M33.155,39.754c-0.647,0-1.282-0.322-1.655-0.909c-1.054-1.656-1.136-3.923-0.223-6.063   c0.996-2.331,2.896-3.983,5.083-4.423c1.066-0.208,2.097,0.475,2.31,1.536c0.213,1.063-0.476,2.096-1.536,2.309   c-0.895,0.179-1.777,1.01-2.25,2.117c-0.395,0.923-0.424,1.874-0.075,2.422c0.581,0.914,0.312,2.125-0.604,2.706   C33.879,39.655,33.515,39.754,33.155,39.754z" fill="#FFFFFF"/></g></svg>