<?xml version="1.0" ?><!DOCTYPE svg  PUBLIC '-//W3C//DTD SVG 1.1//EN'  'http://www.w3.org/Graphics/SVG/1.1/DTD/svg11.dtd'><svg enable-background="new 0 0 91 91" height="91px" id="Layer_1" version="1.1" viewBox="0 0 91 91" width="91px" xml:space="preserve" xmlns="http://www.w3.org/2000/svg" xmlns:xlink="http://www.w3.org/1999/xlink"><g><g><g><path d="M41.921,25.001c-2.087-1.406-5.036-2.068-7.964-2.061c-2.712-0.008-5.384,0.559-7.186,1.375l-0.719,0.323     l-0.725-0.323c-1.448-0.657-3.47-1.141-5.606-1.312l-3.7,0.044c-2.184,0.25-4.265,0.883-5.848,1.952     c-2.076,1.432-3.434,3.432-3.556,6.89c0,0.272-0.012,0.53-0.012,0.768c0.035,4.888,1.155,6.649,2.513,9.114     c1.408,2.425,3.015,5.523,2.974,11.264c-0.008,6.663,1.12,10.574,2.352,12.646c1.243,2.076,1.666,2.378,3.025,2.378     c1.444,0,1.941-1.446,1.999-2.212c0.281-2.823-0.207-7.229,1.191-11.932c0,0,0.979-3.819,5.394-3.619     c4.242,0.192,5.386,3.62,5.386,3.62c1.069,3.579,1.378,7.322,1.127,10.181c-0.35,3.979,1.986,3.963,2.064,3.963     c1.234,0,1.772-0.303,3.021-2.378c1.231-2.071,2.359-5.982,2.355-12.646c-0.037-5.748,1.566-8.839,2.974-11.264     c1.356-2.468,2.474-4.227,2.517-9.114c0-0.246-0.014-0.496-0.019-0.768C45.352,28.431,43.998,26.433,41.921,25.001z" fill="#F4F2E8"/><path d="M84.373,31.891c-0.125-3.46-1.481-5.458-3.559-6.89c-2.087-1.406-5.036-2.068-7.963-2.061     c-2.713-0.008-5.385,0.559-7.186,1.375l-0.721,0.323l-0.727-0.323c-1.445-0.657-3.467-1.141-5.604-1.312l-3.7,0.044     c-2.184,0.25-4.265,0.883-5.846,1.952c-2.075,1.432-3.436,3.432-3.557,6.89c0,0.272-0.014,0.53-0.014,0.768     c0.036,4.888,1.154,6.649,2.515,9.114c1.407,2.425,3.016,5.523,2.973,11.264c-0.006,6.663,1.12,10.574,2.352,12.646     c1.245,2.076,1.666,2.378,3.026,2.378c1.443,0,1.94-1.446,1.998-2.212c0.281-2.823-0.205-7.229,1.19-11.932     c0,0,0.979-3.819,5.394-3.619c4.244,0.192,5.389,3.62,5.389,3.62c1.067,3.579,1.373,7.322,1.127,10.181     c-0.352,3.979,1.984,3.963,2.062,3.963c1.237,0,1.777-0.303,3.023-2.378c1.23-2.071,2.359-5.982,2.355-12.646     c-0.038-5.748,1.568-8.839,2.974-11.264c1.357-2.468,2.471-4.227,2.516-9.114C84.391,32.412,84.38,32.162,84.373,31.891z" fill="#F4F2E8"/></g><g><g><rect fill="#99B3B7" height="10.415" width="10.415" x="20.882" y="34.175"/><rect fill="#99B3B7" height="10.415" width="10.416" x="59.771" y="34.175"/></g><path d="M88.371,37.353h-2.436c0.285-1.262,0.465-2.773,0.482-4.693c0-0.172-0.004-0.346-0.01-0.528l-0.007-0.313     c-0.138-3.747-1.588-6.523-4.453-8.497c-2.302-1.553-5.513-2.408-9.04-2.408h-0.117c-2.791,0-5.716,0.563-7.848,1.504     c-1.685-0.744-3.867-1.252-6.168-1.434c-0.061-0.005-0.124-0.009-0.183-0.006l-3.701,0.043c-0.069,0.001-0.14,0.005-0.209,0.013     c-2.654,0.304-4.988,1.096-6.765,2.299c-0.976,0.672-1.774,1.447-2.425,2.318c-0.653-0.873-1.457-1.652-2.438-2.33     c-2.305-1.553-5.516-2.407-9.042-2.407h-0.117c-2.787,0-5.71,0.562-7.846,1.503c-1.688-0.744-3.871-1.251-6.169-1.433     c-0.061-0.005-0.121-0.009-0.184-0.006l-3.699,0.043c-0.07,0.001-0.14,0.005-0.209,0.013c-2.653,0.304-4.987,1.096-6.767,2.298     c-2.85,1.965-4.299,4.742-4.432,8.561l-0.006,0.362c-0.003,0.141-0.007,0.275-0.007,0.419c0.014,1.914,0.192,3.42,0.477,4.68     H2.628c-1.12,0-2.028,0.908-2.028,2.027c0,1.12,0.908,2.028,2.028,2.028h3.981c0.173,0.327,0.351,0.649,0.53,0.973l0.227,0.409     c1.387,2.387,2.735,5.144,2.699,10.243c-0.011,7.629,1.427,11.652,2.639,13.689c1.253,2.094,2.199,3.364,4.767,3.364     c2.442,0,3.874-2.059,4.018-4.04c0.091-0.921,0.108-1.962,0.126-3.064c0.041-2.554,0.086-5.448,1.004-8.534     c0.106-0.368,0.795-2.236,3.345-2.125c2.593,0.117,3.422,1.909,3.552,2.235c0.895,3.025,1.281,6.52,1.032,9.358     c-0.188,2.127,0.233,3.77,1.252,4.88c1.096,1.198,2.441,1.29,2.83,1.29h0.002c2.328,0,3.391-1.084,4.764-3.367     c1.207-2.029,2.645-6.051,2.639-13.694c-0.03-5.091,1.318-7.847,2.726-10.274l0.205-0.373c0.178-0.323,0.355-0.644,0.528-0.97     h0.007c0.175,0.33,0.354,0.655,0.536,0.981l0.224,0.4c1.386,2.39,2.736,5.146,2.699,10.244c-0.008,7.631,1.43,11.652,2.64,13.689     c1.256,2.093,2.202,3.363,4.767,3.363c2.438,0,3.869-2.056,4.019-4.04c0.091-0.921,0.106-1.963,0.126-3.066     c0.042-2.554,0.088-5.447,1.01-8.562c0.023-0.088,0.618-2.221,3.337-2.096c2.595,0.117,3.423,1.909,3.553,2.234     c0.892,3.02,1.277,6.515,1.031,9.359c-0.187,2.127,0.235,3.77,1.253,4.88c1.096,1.198,2.441,1.29,2.828,1.29h0.002     c2.334,0,3.395-1.084,4.768-3.368c1.207-2.03,2.646-6.054,2.642-13.695c-0.033-5.085,1.258-7.743,2.721-10.272l0.2-0.361     c0.181-0.327,0.359-0.651,0.534-0.981h3.985c1.12,0,2.028-0.908,2.028-2.028C90.399,38.261,89.491,37.353,88.371,37.353z      M47.532,32.354c0.003-0.149,0.006-0.304,0.005-0.393c0.11-3.105,1.417-4.418,2.667-5.279c1.204-0.813,2.875-1.367,4.841-1.605     l3.498-0.041c1.836,0.154,3.595,0.564,4.852,1.133l0.651,0.29l4.901,2.604c0.305,0.161,0.63,0.236,0.95,0.236     c0.728,0,1.429-0.392,1.793-1.076c0.525-0.99,0.149-2.219-0.84-2.743l-0.612-0.325c0.84-0.119,1.707-0.184,2.553-0.184h0.116     c2.689,0,5.156,0.625,6.756,1.702c1.264,0.87,2.569,2.181,2.682,5.258l0.009,0.315c0.003,0.143,0.008,0.278,0.008,0.395     c-0.02,2.124-0.243,3.539-0.62,4.713h-9.526v-3.176c0-1.12-0.908-2.028-2.027-2.028H59.771c-1.12,0-2.028,0.908-2.028,2.028     v3.176h-9.603c-0.377-1.171-0.6-2.581-0.615-4.694L47.532,32.354z M61.8,36.204h6.357v6.359H61.8V36.204z M8.635,32.657     l0.005-0.309c0.004-0.148,0.007-0.302,0.006-0.388c0.11-3.109,1.416-4.419,2.665-5.279c1.204-0.814,2.877-1.368,4.841-1.606     l3.5-0.041c1.835,0.154,3.595,0.564,4.852,1.133l0.645,0.288l4.908,2.607c0.303,0.161,0.629,0.236,0.95,0.236     c0.726,0,1.428-0.392,1.792-1.076c0.525-0.99,0.148-2.219-0.84-2.743l-0.614-0.326c0.84-0.12,1.708-0.185,2.554-0.185h0.117     c2.688,0,5.158,0.625,6.756,1.702c1.263,0.87,2.568,2.181,2.682,5.259l0.009,0.35c0.005,0.117,0.01,0.227,0.011,0.324     c0,0.024-0.001,0.046-0.001,0.07c0,0.009,0,0.018,0,0.027c-0.023,2.09-0.247,3.49-0.621,4.652h-9.526v-3.176     c0-1.12-0.908-2.028-2.027-2.028H20.882c-1.12,0-2.028,0.908-2.028,2.028v3.176H9.249C8.872,36.181,8.65,34.772,8.635,32.657z      M29.269,42.563H22.91v-6.359h6.358V42.563z M34.629,68.059V66.03c0.001,0,0.001,0,0.002,0L34.629,68.059z M37.98,53.037     c0.004,7.063-1.294,10.303-2.064,11.597c-0.681,1.132-0.939,1.355-0.957,1.376c-0.006,0.003-0.052,0.014-0.188,0.018     c-0.072-0.114-0.287-0.565-0.183-1.755c0.298-3.394-0.142-7.379-1.224-10.999c-0.063-0.194-1.648-4.752-7.217-5.003     c-4.85-0.227-6.981,3.308-7.43,5.066c-1.064,3.575-1.117,6.904-1.16,9.58c-0.018,1.061-0.031,1.977-0.111,2.781     c-0.007,0.105-0.05,0.24-0.092,0.331c-0.12-0.003-0.19-0.009-0.231-0.014c-0.112-0.107-0.368-0.428-0.937-1.372     c-0.775-1.305-2.075-4.547-2.067-11.594c0.042-5.657-1.41-9.024-2.873-11.642h7.607v3.183c0,1.12,0.908,2.028,2.028,2.028h10.415     c1.119,0,2.027-0.908,2.027-2.028v-3.183h7.532C39.383,44.05,37.944,47.411,37.98,53.037z M73.52,68.059V66.03     c0,0,0.001,0,0.002,0L73.52,68.059z M76.872,53.038c0.005,7.06-1.296,10.302-2.067,11.6c-0.678,1.128-0.936,1.353-0.953,1.373     c-0.006,0.003-0.052,0.013-0.188,0.018c-0.073-0.115-0.286-0.567-0.182-1.757c0.294-3.399-0.146-7.386-1.225-10.997     c-0.065-0.193-1.649-4.752-7.22-5.003c-4.853-0.227-6.979,3.308-7.43,5.067c-1.059,3.573-1.114,6.901-1.157,9.576     c-0.016,1.062-0.03,1.978-0.11,2.779c-0.008,0.105-0.051,0.244-0.095,0.335c-0.118-0.003-0.189-0.009-0.229-0.014     c-0.126-0.119-0.389-0.461-0.937-1.371c-0.772-1.304-2.071-4.545-2.066-11.593c0.043-5.655-1.409-9.024-2.874-11.644h7.604v3.183     c0,1.12,0.908,2.028,2.028,2.028h10.416c1.119,0,2.027-0.908,2.027-2.028v-3.183h7.531C78.274,44.055,76.834,47.42,76.872,53.038     z" fill="#3B6A75"/></g></g><g><path d="M15.127,27.183c-1.722,0.529-3.021,2.035-3.479,4.021c-0.223,0.971,0.382,1.939,1.354,2.162    c0.137,0.031,0.271,0.046,0.405,0.046c0.821,0,1.563-0.563,1.756-1.398c0.166-0.721,0.552-1.238,1.03-1.388    c0.951-0.294,1.483-1.304,1.189-2.255C17.088,27.419,16.077,26.886,15.127,27.183z" fill="#FFFFFF"/><path d="M56.67,28.371c-0.293-0.952-1.31-1.483-2.256-1.188c-1.72,0.53-3.02,2.034-3.479,4.021    c-0.223,0.971,0.381,1.939,1.354,2.163c0.135,0.031,0.271,0.046,0.405,0.046c0.821,0,1.563-0.563,1.757-1.397    c0.166-0.722,0.551-1.239,1.03-1.389C56.434,30.332,56.966,29.322,56.67,28.371z" fill="#FFFFFF"/></g></g></svg>