<?xml version="1.0" ?><!DOCTYPE svg  PUBLIC '-//W3C//DTD SVG 1.1//EN'  'http://www.w3.org/Graphics/SVG/1.1/DTD/svg11.dtd'><svg enable-background="new 0 0 91 91" height="91px" id="Layer_1" version="1.1" viewBox="0 0 91 91" width="91px" xml:space="preserve" xmlns="http://www.w3.org/2000/svg" xmlns:xlink="http://www.w3.org/1999/xlink"><g><path d="M83.404,20.244l-0.01-0.603C83.16,13.399,80.874,8.99,76.196,5.759c-3.906-2.639-9.439-4.09-15.582-4.09   h-0.216c-4.972,0-10.184,1.01-13.938,2.699l-0.96,0.428l-0.949-0.424c-2.878-1.31-6.879-2.252-11.075-2.59l-7.113,0.104   c-4.572,0.516-8.566,1.855-11.558,3.883c-4.677,3.221-6.963,7.625-7.196,13.883l-0.002,0.125c-0.01,0.486-0.019,0.938-0.019,1.357   c0.071,9.059,2.13,12.773,4.513,17.074l0.402,0.727c2.819,4.875,5.564,10.5,5.486,20.863c-0.002,13.838,2.508,20.961,4.614,24.504   c2.415,4.018,3.446,5.029,6.623,5.029c3.015,0,4.605-2.668,4.806-5.131c0.16-1.621,0.188-3.527,0.222-5.55   c0.075-4.784,0.169-10.744,1.988-16.889l0.045-0.143c0.728-2.375,1.634-5.328,3.364-7.945c1.134-1.707,3.567-3.543,6.24-3.543   c2.133,0,4.018,1.217,5.443,3.518c1.646,2.654,2.617,5.467,3.419,8.104c1.843,6.192,2.608,13.102,2.098,18.951   c-0.28,3.211,0.273,5.602,1.647,7.1c1.331,1.453,2.958,1.527,3.271,1.527h0.003c2.896,0,4.193-0.986,6.615-5.031   c2.108-3.535,4.624-10.66,4.621-24.508c-0.071-10.343,2.676-15.979,5.504-20.881l0.358-0.646c2.489-4.488,4.456-8.031,4.54-17.143   C83.415,20.844,83.41,20.549,83.404,20.244z M61.773,88.313L61.773,88.313L61.773,88.313L61.773,88.313z" fill="#F4F2E8"/><g><path d="M70.374,42.336l-0.233-0.004c-3.705,0-4.539,3.678-5.146,6.362c-0.234,1.033-0.555,2.445-0.92,2.701    c-0.058,0.037-0.091,0.053-0.092,0.058c-0.185-0.048-0.613-0.505-0.899-0.808c-0.95-1.008-2.298-2.447-4.644-2.055    c-3.083,0.516-4.959,4.219-5.805,6.381l-0.161,0.416l0.193,0.4c1.01,2.067,1.702,4.182,2.246,5.965    c1.844,6.193,2.607,13.102,2.098,18.951c-0.279,3.211,0.273,5.602,1.647,7.1c1.331,1.453,2.958,1.527,3.271,1.527h0.004    c2.894,0,4.191-0.986,6.613-5.031c2.11-3.535,4.625-10.66,4.623-24.508c-0.044-6.197,0.906-11.291,2.99-16.031l0.628-1.43    L70.374,42.336z" fill="#F6DABB"/><path d="M39.079,42.346c-3.123-0.442-5.749,1.773-7.611,3.355c-0.525,0.448-1.94,1.491-3.684,1.493    c-1.174,0-2.273-0.487-3.27-1.45c-0.739-0.718-1.596-1.08-2.544-1.08c-1.543,0-3.197,0.971-4.915,2.883l-0.37,0.41l0.145,0.535    c0.919,3.411,1.35,7.108,1.318,11.307c-0.002,13.838,2.508,20.961,4.614,24.504c2.415,4.019,3.445,5.029,6.623,5.029    c3.015,0,4.604-2.668,4.808-5.131c0.158-1.621,0.189-3.527,0.222-5.55c0.076-4.784,0.168-10.743,1.987-16.889l0.044-0.145    c0.729-2.373,1.636-5.326,3.366-7.943c0.996-1.498,2.698-2.75,4.447-3.268l1.155-0.343l-0.529-1.082    C42.861,44.84,40.906,42.607,39.079,42.346z" fill="#F6DABB"/></g><g><path d="M84.676,20.183l-0.009-0.59c-0.253-6.68-2.713-11.407-7.76-14.889c-4.113-2.778-9.896-4.31-16.282-4.31    l-0.106,0.002l-0.131-0.002c-5.135,0-10.539,1.054-14.442,2.81l-0.443,0.197l-0.423-0.188c-3.048-1.388-7.096-2.347-11.402-2.697    C33.604,0.51,33.53,0.508,33.46,0.51l-7.013,0.096c-0.076,0-0.151,0.007-0.227,0.015c-4.774,0.539-8.967,1.954-12.137,4.1    c-5.038,3.467-7.499,8.191-7.748,14.906l-0.002,0.125c-0.01,0.497-0.019,0.955-0.019,1.393c0.073,9.381,2.204,13.229,4.672,17.683    l0.414,0.748c2.73,4.725,5.391,10.176,5.314,20.225c-0.002,14.127,2.604,21.474,4.797,25.162c2.41,4.012,3.783,5.645,7.714,5.645    c3.652,0,5.821-3.177,6.073-6.278c0.164-1.674,0.195-3.605,0.228-5.65c0.076-4.711,0.167-10.572,1.935-16.539l0.037-0.119    c0.742-2.422,1.583-5.168,3.216-7.637c0.981-1.479,3.074-2.975,5.18-2.975c1.692,0,3.16,0.979,4.361,2.916    c1.57,2.532,2.505,5.25,3.277,7.797c1.775,5.961,2.543,12.867,2.052,18.475c-0.313,3.582,0.353,6.299,1.978,8.072    c1.648,1.798,3.64,1.938,4.209,1.938h0.005c3.726,0,5.323-1.666,7.708-5.651c2.192-3.674,4.806-11.022,4.803-25.172    c-0.069-10.021,2.592-15.481,5.346-20.257l0.358-0.646c2.473-4.459,4.609-8.313,4.694-17.756    C84.686,20.824,84.681,20.509,84.676,20.183z M36.892,51.849c-2.001,3.023-2.984,6.24-3.776,8.824l-0.043,0.141    c-1.951,6.591-2.051,12.8-2.129,17.789c-0.032,2.034-0.062,3.79-0.209,5.313c-0.002,0.021-0.207,2.104-1.507,2.104    c-1.497,0-1.728,0-3.778-3.414c-1.549-2.604-4.149-9.032-4.147-22.791c0.03-4.023-0.356-7.408-0.992-10.337    c0.509-0.782,1.179-1.507,1.46-1.569c0.001,0,0.1,0.034,0.285,0.215c3.727,3.605,8.413,2.646,11.402,0.098    c1.484-1.263,3.327-2.845,4.955-2.606c0.489,0.176,1.314,1.41,2,2.868C38.921,49.417,37.697,50.634,36.892,51.849z M65.549,82.602    c-2.039,3.406-2.479,3.418-3.76,3.418c-0.075-0.006-0.503-0.056-0.878-0.487c-0.394-0.451-1.013-1.644-0.761-4.539    c0.548-6.244-0.264-13.6-2.228-20.193c-0.581-1.918-1.255-3.925-2.19-5.939c0.667-1.217,1.841-2.793,3.098-3.004    c0.495-0.082,0.777,0.099,1.688,1.062c0.761,0.806,2.775,2.94,5.288,1.195c1.423-0.986,1.829-2.785,2.261-4.689    c0.744-3.295,1.188-3.795,2.005-3.781l1.655,0.073c-1.226,3.708-2.065,8.225-2.024,14.082    C69.704,73.579,67.1,80.002,65.549,82.602z M75.98,36.657l-0.341,0.616c-0.704,1.219-1.418,2.515-2.096,3.933l-3.272-0.144    c-4.995-0.25-6.078,4.705-6.677,7.351c-0.059,0.264-0.131,0.574-0.205,0.879c-1.042-1.039-2.729-2.385-5.316-1.955    c-2.157,0.361-3.786,1.746-4.935,3.168c-1.944-2.38-4.465-3.683-7.246-3.683c-0.388,0-0.769,0.031-1.146,0.078    c-1.007-2.297-2.866-5.417-5.646-5.816c-3.709-0.532-6.661,1.983-8.614,3.647c-1.062,0.905-3.152,2.118-5.241,0.099    c-1.564-1.515-3.145-1.616-4.194-1.433c-0.836,0.145-1.58,0.519-2.23,0.994c-1.022-2.74-2.24-5.02-3.426-7.072l-0.396-0.715    c-2.342-4.228-4.033-7.28-4.098-15.479c0-0.391,0.009-0.82,0.018-1.283l0.001-0.084c0.195-5.246,1.919-8.613,5.75-11.25    c2.521-1.707,5.961-2.853,9.955-3.318l6.787-0.095c3.695,0.309,7.25,1.143,9.786,2.299l1.268,0.562l9.364,4.966    c0.343,0.182,0.71,0.268,1.072,0.268c0.821,0,1.615-0.441,2.027-1.219c0.594-1.12,0.167-2.506-0.951-3.1l-4.938-2.619    c2.855-0.801,6.188-1.273,9.347-1.273h0.237c5.402,0,10.4,1.283,13.697,3.508c3.841,2.651,5.564,6.024,5.762,11.218l0.008,0.551    c0.005,0.301,0.01,0.59,0.01,0.848C80.027,29.362,78.33,32.421,75.98,36.657z" fill="#3B6A75"/><path d="M30.848,60.396c-0.701-1.055-2.124-1.338-3.178-0.639c-1.054,0.701-1.34,2.123-0.639,3.178l0.126,0.189    c0.441,0.664,1.169,1.022,1.911,1.022c0.436,0,0.877-0.125,1.267-0.382c1.054-0.701,1.341-2.125,0.64-3.18L30.848,60.396z" fill="#3B6A75"/><path d="M26.439,53.783l-0.127-0.189c-0.703-1.055-2.125-1.332-3.18-0.633c-1.053,0.705-1.336,2.129-0.632,3.18    l0.126,0.189c0.442,0.663,1.168,1.02,1.908,1.02c0.438,0,0.881-0.127,1.271-0.387C26.86,56.258,27.143,54.834,26.439,53.783z" fill="#3B6A75"/><path d="M27.505,67.666c-1.266,0-2.292,1.024-2.292,2.291v0.227c0,1.267,1.026,2.293,2.292,2.293    c1.267,0,2.293-1.027,2.292-2.293v-0.227C29.797,68.69,28.771,67.666,27.505,67.666z" fill="#3B6A75"/><path d="M64.614,71.087c-1.239-0.266-2.457,0.52-2.726,1.758l-0.048,0.223c-0.266,1.237,0.521,2.457,1.758,2.726    c0.163,0.035,0.325,0.051,0.485,0.051c1.057,0,2.007-0.734,2.24-1.809l0.048-0.224C66.638,72.575,65.852,71.354,64.614,71.087z" fill="#3B6A75"/><path d="M66.352,63.105c-1.237-0.274-2.459,0.511-2.73,1.746l-0.049,0.222c-0.273,1.235,0.509,2.461,1.745,2.731    c0.166,0.037,0.331,0.055,0.495,0.055c1.052,0,2-0.73,2.235-1.801l0.049-0.221C68.37,64.602,67.588,63.377,66.352,63.105z" fill="#3B6A75"/></g><path d="M21.896,33.213c-0.944,0-1.851-0.527-2.293-1.432c-2.657-5.453-2.707-15.457,4.11-20.063   c1.166-0.791,2.75-0.482,3.537,0.684s0.479,2.75-0.685,3.537c-4.142,2.797-4.178,9.929-2.383,13.609   c0.616,1.264,0.092,2.789-1.173,3.406C22.65,33.129,22.27,33.213,21.896,33.213z" fill="#FFFFFF"/></g></svg>