<?xml version="1.0" encoding="iso-8859-1"?>
<!-- Generator: Adobe Illustrator 19.0.0, SVG Export Plug-In . SVG Version: 6.00 Build 0)  -->
<svg version="1.1" id="Layer_1" xmlns="http://www.w3.org/2000/svg" xmlns:xlink="http://www.w3.org/1999/xlink" x="0px" y="0px"
	 viewBox="0 0 512 512" style="enable-background:new 0 0 512 512;" xml:space="preserve">
<g>
	<path style="fill:#2D527C;" d="M164.25,512c-49.81,0-69.856-77.647-84.493-134.341c-3.58-13.868-6.963-26.968-9.569-33.223
		C40.794,273.92,23.246,200.972,23.246,149.297c0-38.541,13.133-75.119,36.981-102.995C85.773,16.444,120.995,0,159.409,0
		c30.782,0,61.291,17.624,83.565,30.493l0.311,0.179c7.812,4.514,17.628,4.519,25.532-0.036l0.31-0.178
		C291.45,17.602,322.012,0,352.591,0c38.414,0,73.636,16.444,99.179,46.303c0.009,0.011,0.019,0.02,0.028,0.031
		c23.832,27.874,36.956,64.438,36.956,102.965c0,17.872-4.459,45.411-14.031,86.662c-1.964,8.462-10.42,13.725-18.877,11.766
		c-8.462-1.964-13.729-10.415-11.765-18.876c8.893-38.327,13.217-64.348,13.217-79.553c0-31.035-10.445-60.342-29.409-82.522
		c-0.006-0.008-0.014-0.016-0.02-0.024c-19.472-22.762-46.205-35.296-75.276-35.296c-22.169,0-48.519,15.175-67.758,26.255
		l-0.315,0.181c-17.597,10.142-39.461,10.131-57.05-0.031c-0.041-0.024-0.187-0.107-0.228-0.131
		c-19.197-11.089-45.483-26.274-67.832-26.274c-29.071,0-55.804,12.534-75.278,35.295c-18.976,22.182-29.428,51.498-29.428,82.546
		c0,47.733,16.642,116.158,44.519,183.037c3.47,8.324,6.788,21.183,10.991,37.462c6.177,23.923,13.863,53.695,24.354,77.021
		c6.35,14.116,13.02,24.116,19.477,29.396c0.972-3.995,2.042-8.506,3.097-12.956c7.043-29.719,17.687-74.63,32.199-113.235
		c12.632-33.599,33.36-78.243,67.406-78.243c0.05,0,0.094,0,0.145,0c34.084,0.127,54.453,44.889,66.811,78.546
		c14.171,38.598,24.418,83.414,31.201,113.072c0.994,4.346,2.001,8.75,2.921,12.668c8.419-6.872,15.458-20.417,19.522-29.521
		c10.453-23.421,18.047-53.387,24.149-77.466c4.201-16.583,7.52-29.681,11.043-38.154c3.334-8.022,12.542-11.822,20.56-8.487
		c8.023,3.334,11.822,12.539,8.487,20.56c-2.641,6.353-6.021,19.689-9.599,33.807c-14.443,56.995-34.222,135.052-84.515,135.052
		c-13.007,0-16.208-12.38-18.121-19.777c-1.373-5.312-3.025-12.531-5.113-21.669c-6.604-28.881-16.586-72.524-30.065-109.242
		c-20.651-56.248-35.746-57.926-37.397-57.933c-1.653,0.061-16.826,1.568-37.987,57.855c-13.811,36.734-24.178,80.476-31.035,109.42
		c-2.177,9.187-3.898,16.444-5.324,21.785C180.458,499.667,177.166,512,164.25,512z"/>
	<path style="fill:#2D527C;" d="M256,159.795c-49.963,0-94.468-20.875-110.746-51.945c-4.031-7.694-1.062-17.201,6.633-21.232
		c7.691-4.03,17.201-1.062,21.232,6.633c10.823,20.658,44.906,35.087,82.881,35.087s72.057-14.428,82.881-35.087
		c4.03-7.694,13.533-10.665,21.23-6.633c7.696,4.031,10.664,13.536,6.633,21.232C350.467,138.92,305.961,159.795,256,159.795z"/>
</g>
<path style="fill:#CEE8FA;" d="M83.585,335.665c0.374,0.908,0.741,1.815,1.118,2.721c12.738,30.565,29.936,157.887,79.545,157.887
	c3.592,0,20.156-98.954,47.98-160.608H83.585z"/>
<path style="fill:#2D527C;" d="M164.25,512c-49.961,0-69.932-77.632-84.512-134.318c-3.57-13.88-6.944-26.992-9.55-33.247
	l-1.145-2.785c-1.998-4.852-1.442-10.381,1.477-14.739s7.82-6.976,13.067-6.976h128.643c5.34,0,10.316,2.71,13.212,7.196
	c2.896,4.486,3.32,10.135,1.123,15.003c-17.666,39.148-30.905,95.004-38.815,128.379c-2.177,9.187-3.898,16.444-5.324,21.785
	C180.458,499.667,177.166,512,164.25,512z M105.359,351.394c1.512,5.507,3.102,11.685,4.843,18.453
	c6.153,23.917,13.808,53.681,24.289,76.991c6.357,14.138,13.051,24.146,19.546,29.414c0.975-4.003,2.048-8.528,3.105-12.992
	c6.803-28.698,17.418-73.491,31.693-111.865L105.359,351.394L105.359,351.394z"/>
<path style="fill:#CEE8FA;" d="M300.865,335.665c27.295,61.611,43.041,160.465,46.605,160.465
	c50.084,0,66.763-128.308,79.589-159.169l0.404-1.296H300.865z"/>
<path style="fill:#2D527C;" d="M347.47,511.858c-13.007,0-16.208-12.38-18.121-19.777c-1.373-5.312-3.025-12.531-5.115-21.669
	c-7.631-33.366-20.403-89.215-37.75-128.376c-2.156-4.865-1.705-10.489,1.197-14.948c2.903-4.459,7.863-7.15,13.184-7.15h126.598
	c5.002,0,9.704,2.378,12.668,6.406c2.965,4.028,3.836,9.225,2.35,14l-0.404,1.298c-0.145,0.461-0.308,0.914-0.492,1.361
	c-2.641,6.353-6.021,19.689-9.599,33.807C417.544,433.801,397.765,511.858,347.47,511.858z M324.087,351.394
	c13.987,38.42,24.245,83.279,30.815,112.005c0.994,4.346,2.001,8.75,2.921,12.668c8.419-6.872,15.458-20.417,19.522-29.521
	c10.453-23.421,18.047-53.387,24.149-77.466c1.633-6.444,3.132-12.361,4.561-17.687L324.087,351.394L324.087,351.394z"/>
<g>
</g>
<g>
</g>
<g>
</g>
<g>
</g>
<g>
</g>
<g>
</g>
<g>
</g>
<g>
</g>
<g>
</g>
<g>
</g>
<g>
</g>
<g>
</g>
<g>
</g>
<g>
</g>
<g>
</g>
</svg>
